<svg xmlns="http://www.w3.org/2000/svg" viewBox="0 0 760 470" role="img" aria-label="Prior-predictive vote flows in 131 runoffs."><style>
    .surface{fill:#fbfbfc}.ink{fill:#16181d}.muted{fill:#5a616e}
    @media(prefers-color-scheme:dark){.surface{fill:#14161a}.ink{fill:#e9eaee}.muted{fill:#9aa2b1}}
    text{font-family:ui-sans-serif,-apple-system,'Segoe UI',Roboto,sans-serif}
    </style><rect class="surface" width="760" height="470"/><text class="ink" x="16" y="26" font-size="13" font-weight="600">Estimation des flux de report par le modèle</text><text class="muted" x="16" y="44" font-size="11">Flux médians de la distribution prédictive a priori sur 131 duels ENS+/RN+. La largeur des flux correspond au nombre de voix.</text><text class="muted" x="16" y="62" font-size="10" letter-spacing="0.06em">RESERVOIR</text><text class="muted" x="597" y="62" font-size="10" letter-spacing="0.06em" text-anchor="end">SECOND ROUND</text><path d="M 145 239.1 C 364.5 239.1 364.5 217.9 584 217.9 L 584 405.0 C 364.5 405.0 364.5 426.2 145 426.2 Z" fill="#8a9099" opacity="0.42"/><path d="M 145 74.0 C 364.5 74.0 364.5 74.0 584 74.0 L 584 133.6 C 364.5 133.6 364.5 133.6 145 133.6 Z" fill="#e06666" opacity="0.42"/><path d="M 145 133.6 C 364.5 133.6 364.5 163.8 584 163.8 L 584 180.2 C 364.5 180.2 364.5 150.0 145 150.0 Z" fill="#e06666" opacity="0.42"/><path d="M 145 150.0 C 364.5 150.0 364.5 197.8 584 197.8 L 584 214.0 C 364.5 214.0 364.5 166.2 145 166.2 Z" fill="#e06666" opacity="0.42"/><path d="M 145 173.2 C 364.5 173.2 364.5 133.6 584 133.6 L 584 143.8 C 364.5 143.8 364.5 183.4 145 183.4 Z" fill="#0086ff" opacity="0.42"/><path d="M 145 232.4 C 364.5 232.4 364.5 184.1 584 184.1 L 584 190.8 C 364.5 190.8 364.5 239.1 145 239.1 Z" fill="#8a9099" opacity="0.42"/><path d="M 145 226.2 C 364.5 226.2 364.5 150.6 584 150.6 L 584 156.8 C 364.5 156.8 364.5 232.4 145 232.4 Z" fill="#8a9099" opacity="0.42"/><path d="M 145 194.0 C 364.5 194.0 364.5 143.8 584 143.8 L 584 148.3 C 364.5 148.3 364.5 198.5 145 198.5 Z" fill="#9fc5e8" opacity="0.42"/><path d="M 145 185.2 C 364.5 185.2 364.5 214.0 584 214.0 L 584 215.8 C 364.5 215.8 364.5 187.0 145 187.0 Z" fill="#0086ff" opacity="0.42"/><path d="M 145 183.4 C 364.5 183.4 364.5 180.2 584 180.2 L 584 182.1 C 364.5 182.1 364.5 185.2 145 185.2 Z" fill="#0086ff" opacity="0.42"/><path d="M 145 217.2 C 364.5 217.2 364.5 149.4 584 149.4 L 584 150.6 C 364.5 150.6 364.5 218.4 145 218.4 Z" fill="#ea9999" opacity="0.42"/><path d="M 145 207.3 C 364.5 207.3 364.5 148.3 584 148.3 L 584 149.4 C 364.5 149.4 364.5 208.4 145 208.4 Z" fill="#8e7cc3" opacity="0.42"/><path d="M 145 198.5 C 364.5 198.5 364.5 182.1 584 182.1 L 584 183.0 C 364.5 183.0 364.5 199.4 145 199.4 Z" fill="#9fc5e8" opacity="0.42"/><path d="M 145 199.4 C 364.5 199.4 364.5 215.8 584 215.8 L 584 216.7 C 364.5 216.7 364.5 200.3 145 200.3 Z" fill="#9fc5e8" opacity="0.42"/><path d="M 145 209.3 C 364.5 209.3 364.5 216.7 584 216.7 L 584 217.6 C 364.5 217.6 364.5 210.2 145 210.2 Z" fill="#8e7cc3" opacity="0.42"/><path d="M 145 208.4 C 364.5 208.4 364.5 183.0 584 183.0 L 584 183.8 C 364.5 183.8 364.5 209.3 145 209.3 Z" fill="#8e7cc3" opacity="0.42"/><path d="M 145 218.7 C 364.5 218.7 364.5 217.6 584 217.6 L 584 217.9 C 364.5 217.9 364.5 219.0 145 219.0 Z" fill="#ea9999" opacity="0.42"/><path d="M 145 218.4 C 364.5 218.4 364.5 183.8 584 183.8 L 584 184.1 C 364.5 184.1 364.5 218.7 145 218.7 Z" fill="#ea9999" opacity="0.42"/><rect x="132" y="74.0" width="13" height="92.2" rx="2.5" fill="#e06666"/><text class="ink" x="122" y="119.1" font-size="11.5" font-weight="600" text-anchor="end">NFP+</text><text class="muted" x="122" y="131.1" font-size="10" text-anchor="end">1,762k</text><rect x="132" y="173.2" width="13" height="13.8" rx="2.5" fill="#0086ff"/><text class="ink" x="122" y="179.1" font-size="11.5" font-weight="600" text-anchor="end">LR</text><text class="muted" x="122" y="191.1" font-size="10" text-anchor="end">264k</text><rect x="132" y="194.0" width="13" height="6.3" rx="2.5" fill="#9fc5e8"/><line x1="129" y1="197.2" x2="125" y2="206.1" stroke="#9fc5e8" stroke-width="0.9" opacity="0.8"/><text class="ink" x="122" y="205.1" font-size="11.5" font-weight="600" text-anchor="end">DVD</text><text class="muted" x="122" y="217.1" font-size="10" text-anchor="end">121k</text><rect x="132" y="207.3" width="13" height="2.8" rx="2.5" fill="#8e7cc3"/><line x1="129" y1="208.8" x2="125" y2="232.1" stroke="#8e7cc3" stroke-width="0.9" opacity="0.8"/><text class="ink" x="122" y="231.1" font-size="11.5" font-weight="600" text-anchor="end">DIV</text><text class="muted" x="122" y="243.1" font-size="10" text-anchor="end">54k</text><rect x="132" y="217.2" width="13" height="2.0" rx="2.5" fill="#ea9999"/><line x1="129" y1="218.2" x2="125" y2="258.1" stroke="#ea9999" stroke-width="0.9" opacity="0.8"/><text class="ink" x="122" y="257.1" font-size="11.5" font-weight="600" text-anchor="end">DVG</text><text class="muted" x="122" y="269.1" font-size="10" text-anchor="end">35k</text><rect x="132" y="226.2" width="13" height="200.0" rx="2.5" fill="#8a9099"/><text class="ink" x="122" y="325.2" font-size="11.5" font-weight="600" text-anchor="end">NON_EXPRIMES</text><text class="muted" x="122" y="337.2" font-size="10" text-anchor="end">3,821k</text><rect x="584" y="74.0" width="13" height="82.8" rx="2.5" fill="#f1c232"/><text class="ink" x="607" y="114.4" font-size="11.5" font-weight="600" text-anchor="start">ENS+</text><text class="muted" x="607" y="126.4" font-size="10" text-anchor="start">1,582k</text><rect x="584" y="163.8" width="13" height="27.0" rx="2.5" fill="#0b5394"/><text class="ink" x="607" y="176.3" font-size="11.5" font-weight="600" text-anchor="start">RN+</text><text class="muted" x="607" y="188.3" font-size="10" text-anchor="start">516k</text><rect x="584" y="197.8" width="13" height="207.2" rx="2.5" fill="#8a9099"/><text class="ink" x="607" y="300.4" font-size="11.5" font-weight="600" text-anchor="start">NON_EXPRIMES</text><text class="muted" x="607" y="312.4" font-size="10" text-anchor="start">3,958k</text><text class="muted" x="16" y="434" font-size="10.5">90% prior interval — NFP+ → ENS+ 811k–1,697k  ·  NFP+ → RN+ 10k–757k  ·  non-voters staying home 2,503k–3,821k</text><text class="muted" x="16" y="449" font-size="10.5">The bands are enormous: the model has an ORDER, not a rate. Nothing here is fitted to the second round.</text></svg>
