<svg xmlns="http://www.w3.org/2000/svg" xmlns:xlink="http://www.w3.org/1999/xlink" version="1.1" class="marks" width="642" height="196" viewBox="0 0 642 196"><g fill="none" stroke-miterlimit="10" transform="translate(76,39)"><g class="mark-group role-frame root" role="graphics-object" aria-roledescription="group mark container"><g transform="translate(0,0)"><path class="background" aria-hidden="true" d="M0,0h560v120h-560Z"/><g><g class="mark-group role-axis" aria-hidden="true"><g transform="translate(0.5,120.5)"><path class="background" aria-hidden="true" d="M0,0h0v0h0Z" pointer-events="none"/><g><g class="mark-rule role-axis-grid" pointer-events="none"><line transform="translate(0,0)" x2="0" y2="-120" stroke="#e3e5ea" stroke-width="1" opacity="1"/><line transform="translate(56,0)" x2="0" y2="-120" stroke="#e3e5ea" stroke-width="1" opacity="1"/><line transform="translate(112,0)" x2="0" y2="-120" stroke="#e3e5ea" stroke-width="1" opacity="1"/><line transform="translate(168,0)" x2="0" y2="-120" stroke="#e3e5ea" stroke-width="1" opacity="1"/><line transform="translate(224,0)" x2="0" y2="-120" stroke="#e3e5ea" stroke-width="1" opacity="1"/><line transform="translate(280,0)" x2="0" y2="-120" stroke="#e3e5ea" stroke-width="1" opacity="1"/><line transform="translate(336,0)" x2="0" y2="-120" stroke="#e3e5ea" stroke-width="1" opacity="1"/><line transform="translate(392,0)" x2="0" y2="-120" stroke="#e3e5ea" stroke-width="1" opacity="1"/><line transform="translate(448,0)" x2="0" y2="-120" stroke="#e3e5ea" stroke-width="1" opacity="1"/><line transform="translate(504,0)" x2="0" y2="-120" stroke="#e3e5ea" stroke-width="1" opacity="1"/><line transform="translate(560,0)" x2="0" y2="-120" stroke="#e3e5ea" stroke-width="1" opacity="1"/></g></g><path class="foreground" aria-hidden="true" d="" pointer-events="none" display="none"/></g></g><g class="mark-group role-axis" role="graphics-symbol" aria-roledescription="axis" aria-label="X-axis titled 'Probability of being the single largest bloc' for a linear scale with values from 0% to 100%"><g transform="translate(0.5,120.5)"><path class="background" aria-hidden="true" d="M0,0h0v0h0Z" pointer-events="none"/><g><g class="mark-rule role-axis-tick" pointer-events="none"><line transform="translate(0,0)" x2="0" y2="5" stroke="#dfe2e8" stroke-width="1" opacity="1"/><line transform="translate(56,0)" x2="0" y2="5" stroke="#dfe2e8" stroke-width="1" opacity="1"/><line transform="translate(112,0)" x2="0" y2="5" stroke="#dfe2e8" stroke-width="1" opacity="1"/><line transform="translate(168,0)" x2="0" y2="5" stroke="#dfe2e8" stroke-width="1" opacity="1"/><line transform="translate(224,0)" x2="0" y2="5" stroke="#dfe2e8" stroke-width="1" opacity="1"/><line transform="translate(280,0)" x2="0" y2="5" stroke="#dfe2e8" stroke-width="1" opacity="1"/><line transform="translate(336,0)" x2="0" y2="5" stroke="#dfe2e8" stroke-width="1" opacity="1"/><line transform="translate(392,0)" x2="0" y2="5" stroke="#dfe2e8" stroke-width="1" opacity="1"/><line transform="translate(448,0)" x2="0" y2="5" stroke="#dfe2e8" stroke-width="1" opacity="1"/><line transform="translate(504,0)" x2="0" y2="5" stroke="#dfe2e8" stroke-width="1" opacity="1"/><line transform="translate(560,0)" x2="0" y2="5" stroke="#dfe2e8" stroke-width="1" opacity="1"/></g><g class="mark-text role-axis-label" pointer-events="none"><text text-anchor="start" transform="translate(0,15)" font-family="Arial" font-size="10px" fill="#5a616e" opacity="1">0%</text><text text-anchor="middle" transform="translate(56,15)" font-family="Arial" font-size="10px" fill="#5a616e" opacity="1">10%</text><text text-anchor="middle" transform="translate(112,15)" font-family="Arial" font-size="10px" fill="#5a616e" opacity="1">20%</text><text text-anchor="middle" transform="translate(168,15)" font-family="Arial" font-size="10px" fill="#5a616e" opacity="1">30%</text><text text-anchor="middle" transform="translate(224,15)" font-family="Arial" font-size="10px" fill="#5a616e" opacity="1">40%</text><text text-anchor="middle" transform="translate(280,15)" font-family="Arial" font-size="10px" fill="#5a616e" opacity="1">50%</text><text text-anchor="middle" transform="translate(336,15)" font-family="Arial" font-size="10px" fill="#5a616e" opacity="1">60%</text><text text-anchor="middle" transform="translate(392,15)" font-family="Arial" font-size="10px" fill="#5a616e" opacity="1">70%</text><text text-anchor="middle" transform="translate(448,15)" font-family="Arial" font-size="10px" fill="#5a616e" opacity="1">80%</text><text text-anchor="middle" transform="translate(504,15)" font-family="Arial" font-size="10px" fill="#5a616e" opacity="1">90%</text><text text-anchor="end" transform="translate(560,15)" font-family="Arial" font-size="10px" fill="#5a616e" opacity="1">100%</text></g><g class="mark-text role-axis-title" pointer-events="none"><text text-anchor="middle" transform="translate(280,30)" font-family="Arial" font-size="11px" font-weight="bold" fill="#16181d" opacity="1">Probability of being the single largest bloc</text></g></g><path class="foreground" aria-hidden="true" d="" pointer-events="none" display="none"/></g></g><g class="mark-group role-axis" role="graphics-symbol" aria-roledescription="axis" aria-label="Y-axis for a discrete scale with 4 values: NFP+, RN+, ENS+, Tie for first"><g transform="translate(0.5,0.5)"><path class="background" aria-hidden="true" d="M0,0h0v0h0Z" pointer-events="none"/><g><g class="mark-rule role-axis-tick" pointer-events="none"><line transform="translate(0,15)" x2="-5" y2="0" stroke="#dfe2e8" stroke-width="1" opacity="1"/><line transform="translate(0,45)" x2="-5" y2="0" stroke="#dfe2e8" stroke-width="1" opacity="1"/><line transform="translate(0,75)" x2="-5" y2="0" stroke="#dfe2e8" stroke-width="1" opacity="1"/><line transform="translate(0,105)" x2="-5" y2="0" stroke="#dfe2e8" stroke-width="1" opacity="1"/></g><g class="mark-text role-axis-label" pointer-events="none"><text text-anchor="end" transform="translate(-7,17.5)" font-family="Arial" font-size="10px" fill="#5a616e" opacity="1">NFP+</text><text text-anchor="end" transform="translate(-7,47.5)" font-family="Arial" font-size="10px" fill="#5a616e" opacity="1">RN+</text><text text-anchor="end" transform="translate(-7,77.5)" font-family="Arial" font-size="10px" fill="#5a616e" opacity="1">ENS+</text><text text-anchor="end" transform="translate(-7,107.5)" font-family="Arial" font-size="10px" fill="#5a616e" opacity="1">Tie for first</text></g></g><path class="foreground" aria-hidden="true" d="" pointer-events="none" display="none"/></g></g><g class="mark-group role-scope" role="graphics-object" aria-roledescription="group mark container"><g transform="translate(0,6)"><path class="background" aria-hidden="true" d="M0,0L459.93333333333334,0C461.58907840681536,0,462.93333333333334,1.344254926518,462.93333333333334,3L462.93333333333334,15C462.93333333333334,16.655745073482,461.58907840681536,18,459.93333333333334,18L0,18C0,18,0,18,0,18L0,0C0,0,0,0,0,0Z"/><g clip-path="url(#clip1)"><g class="mark-group role-scope" role="graphics-object" aria-roledescription="group mark container"><g transform="translate(0,0)"><path class="background" aria-hidden="true" d="M0,0h0v18h0Z"/><g><g class="mark-rect role-mark layer_0_marks" role="graphics-object" aria-roledescription="rect mark container"><path aria-label="Probability of being the single largest bloc: 82.666,667%; party: NFP+; Group: NFP+; Probability: 82.7%" role="graphics-symbol" aria-roledescription="bar" d="M0,0h462.93333333333334v18h-462.93333333333334Z" fill="#c94f4f"/></g></g><path class="foreground" aria-hidden="true" d="" display="none"/></g></g></g><path class="foreground" aria-hidden="true" d="" display="none"/></g><g transform="translate(0,66)"><path class="background" aria-hidden="true" d="M0,0L28.36,0C30.015745073481998,0,31.36,1.344254926518,31.36,3L31.36,15C31.36,16.655745073482,30.015745073481998,18,28.36,18L0,18C0,18,0,18,0,18L0,0C0,0,0,0,0,0Z"/><g clip-path="url(#clip2)"><g class="mark-group role-scope" role="graphics-object" aria-roledescription="group mark container"><g transform="translate(0,0)"><path class="background" aria-hidden="true" d="M0,0h0v18h0Z"/><g><g class="mark-rect role-mark layer_0_marks" role="graphics-object" aria-roledescription="rect mark container"><path aria-label="Probability of being the single largest bloc: 5.600,000%; party: ENS+; Group: ENS+; Probability: 5.6%" role="graphics-symbol" aria-roledescription="bar" d="M0,0h31.36v18h-31.36Z" fill="#8a6800"/></g></g><path class="foreground" aria-hidden="true" d="" display="none"/></g></g></g><path class="foreground" aria-hidden="true" d="" display="none"/></g><g transform="translate(0,36)"><path class="background" aria-hidden="true" d="M0,0L59.906666666666666,0C61.56241174014867,0,62.906666666666666,1.344254926518,62.906666666666666,3L62.906666666666666,15C62.906666666666666,16.655745073482,61.56241174014867,18,59.906666666666666,18L0,18C0,18,0,18,0,18L0,0C0,0,0,0,0,0Z"/><g clip-path="url(#clip3)"><g class="mark-group role-scope" role="graphics-object" aria-roledescription="group mark container"><g transform="translate(0,0)"><path class="background" aria-hidden="true" d="M0,0h0v18h0Z"/><g><g class="mark-rect role-mark layer_0_marks" role="graphics-object" aria-roledescription="rect mark container"><path aria-label="Probability of being the single largest bloc: 11.233,333%; party: RN+; Group: RN+; Probability: 11.2%" role="graphics-symbol" aria-roledescription="bar" d="M0,0h62.906666666666666v18h-62.906666666666666Z" fill="#0b5394"/></g></g><path class="foreground" aria-hidden="true" d="" display="none"/></g></g></g><path class="foreground" aria-hidden="true" d="" display="none"/></g><g transform="translate(0,96)"><path class="background" aria-hidden="true" d="M0,0L1.4000000000000001,0C2.1726810342916,0,2.8000000000000003,0.6273189657084001,2.8000000000000003,1.4000000000000001L2.8000000000000003,16.6C2.8000000000000003,17.3726810342916,2.1726810342916,18,1.4000000000000001,18L0,18C0,18,0,18,0,18L0,0C0,0,0,0,0,0Z"/><g clip-path="url(#clip4)"><g class="mark-group role-scope" role="graphics-object" aria-roledescription="group mark container"><g transform="translate(0,0)"><path class="background" aria-hidden="true" d="M0,0h0v18h0Z"/><g><g class="mark-rect role-mark layer_0_marks" role="graphics-object" aria-roledescription="rect mark container"><path aria-label="Probability of being the single largest bloc: 0.500,000%; party: Tie for first; Group: Tie for first; Probability: 0.5%" role="graphics-symbol" aria-roledescription="bar" d="M0,0h2.8000000000000003v18h-2.8000000000000003Z" fill="#8a9099"/></g></g><path class="foreground" aria-hidden="true" d="" display="none"/></g></g></g><path class="foreground" aria-hidden="true" d="" display="none"/></g></g><g class="mark-text role-mark layer_1_marks" role="graphics-object" aria-roledescription="text mark container"><text aria-label="Probability of being the single largest bloc: 82.666,667%; party: NFP+; probability: 82.7%; Group: NFP+; Probability: 82.7%" role="graphics-symbol" aria-roledescription="text mark" text-anchor="start" transform="translate(468.93333333333334,18)" font-family="Arial" font-size="11px" font-weight="600" fill="#16181d">82.7%</text><text aria-label="Probability of being the single largest bloc: 5.600,000%; party: ENS+; probability: 5.6%; Group: ENS+; Probability: 5.6%" role="graphics-symbol" aria-roledescription="text mark" text-anchor="start" transform="translate(37.36,78)" font-family="Arial" font-size="11px" font-weight="600" fill="#16181d">5.6%</text><text aria-label="Probability of being the single largest bloc: 11.233,333%; party: RN+; probability: 11.2%; Group: RN+; Probability: 11.2%" role="graphics-symbol" aria-roledescription="text mark" text-anchor="start" transform="translate(68.90666666666667,48)" font-family="Arial" font-size="11px" font-weight="600" fill="#16181d">11.2%</text><text aria-label="Probability of being the single largest bloc: 0.500,000%; party: Tie for first; probability: 0.5%; Group: Tie for first; Probability: 0.5%" role="graphics-symbol" aria-roledescription="text mark" text-anchor="start" transform="translate(8.8,108)" font-family="Arial" font-size="11px" font-weight="600" fill="#16181d">0.5%</text></g><g class="mark-group role-title"><g transform="translate(-70.935546875,-34)"><path class="background" aria-hidden="true" d="M0,0h0v0h0Z" pointer-events="none"/><g><g class="mark-text role-title-text" role="graphics-symbol" aria-roledescription="title" aria-label="Title text 'Who wins the most seats?'" pointer-events="none"><text text-anchor="start" transform="translate(0,13)" font-family="Arial" font-size="16px" font-weight="600" fill="#16181d" opacity="1">Who wins the most seats?</text></g><g class="mark-text role-title-subtitle" role="graphics-symbol" aria-roledescription="subtitle" aria-label="Subtitle text 'Prior predictive distribution of the probability of holding a relative majority'" pointer-events="none"><text text-anchor="start" transform="translate(0,28)" font-family="Arial" font-size="11px" fill="#5a616e" opacity="1">Prior predictive distribution of the probability of holding a relative majority</text></g></g><path class="foreground" aria-hidden="true" d="" pointer-events="none" display="none"/></g></g></g><path class="foreground" aria-hidden="true" d="" display="none"/></g></g></g><defs><clipPath id="clip1"><path d="M0,0L459.93333333333334,0C461.58907840681536,0,462.93333333333334,1.344254926518,462.93333333333334,3L462.93333333333334,15C462.93333333333334,16.655745073482,461.58907840681536,18,459.93333333333334,18L0,18C0,18,0,18,0,18L0,0C0,0,0,0,0,0Z"/></clipPath><clipPath id="clip2"><path d="M0,0L28.36,0C30.015745073481998,0,31.36,1.344254926518,31.36,3L31.36,15C31.36,16.655745073482,30.015745073481998,18,28.36,18L0,18C0,18,0,18,0,18L0,0C0,0,0,0,0,0Z"/></clipPath><clipPath id="clip3"><path d="M0,0L59.906666666666666,0C61.56241174014867,0,62.906666666666666,1.344254926518,62.906666666666666,3L62.906666666666666,15C62.906666666666666,16.655745073482,61.56241174014867,18,59.906666666666666,18L0,18C0,18,0,18,0,18L0,0C0,0,0,0,0,0Z"/></clipPath><clipPath id="clip4"><path d="M0,0L1.4000000000000001,0C2.1726810342916,0,2.8000000000000003,0.6273189657084001,2.8000000000000003,1.4000000000000001L2.8000000000000003,16.6C2.8000000000000003,17.3726810342916,2.1726810342916,18,1.4000000000000001,18L0,18C0,18,0,18,0,18L0,0C0,0,0,0,0,0Z"/></clipPath></defs></svg>