<svg xmlns="http://www.w3.org/2000/svg" xmlns:xlink="http://www.w3.org/1999/xlink" version="1.1" class="marks" width="340" height="379" viewBox="0 0 340 379"><rect width="340" height="379" fill="white"/><g fill="none" stroke-miterlimit="10" transform="translate(110,25)"><g class="mark-group role-frame root" role="graphics-object" aria-roledescription="group mark container"><g transform="translate(0,0)"><path class="background" aria-hidden="true" d="M0.5,0.5h120v300h-120Z" stroke="#ddd"/><g><g class="mark-group role-axis" aria-hidden="true"><g transform="translate(0.5,0.5)"><path class="background" aria-hidden="true" d="M0,0h0v0h0Z" pointer-events="none"/><g><g class="mark-rule role-axis-grid" pointer-events="none"><line transform="translate(0,300)" x2="120" y2="0" stroke="#ddd" stroke-width="1" opacity="1"/><line transform="translate(0,242)" x2="120" y2="0" stroke="#ddd" stroke-width="1" opacity="1"/><line transform="translate(0,185)" x2="120" y2="0" stroke="#ddd" stroke-width="1" opacity="1"/><line transform="translate(0,127)" x2="120" y2="0" stroke="#ddd" stroke-width="1" opacity="1"/><line transform="translate(0,69)" x2="120" y2="0" stroke="#ddd" stroke-width="1" opacity="1"/><line transform="translate(0,12)" x2="120" y2="0" stroke="#ddd" stroke-width="1" opacity="1"/></g></g><path class="foreground" aria-hidden="true" d="" pointer-events="none" display="none"/></g></g><g class="mark-group role-axis" role="graphics-symbol" aria-roledescription="axis" aria-label="X-axis titled 'Ensemble politique' for a discrete scale with 6 values: ABS, DIV, ENS+, LR+, NFP+, RN+"><g transform="translate(0.5,300.5)"><path class="background" aria-hidden="true" d="M0,0h0v0h0Z" pointer-events="none"/><g><g class="mark-rule role-axis-tick" pointer-events="none"><line transform="translate(10,0)" x2="0" y2="5" stroke="#888" stroke-width="1" opacity="1"/><line transform="translate(30,0)" x2="0" y2="5" stroke="#888" stroke-width="1" opacity="1"/><line transform="translate(50,0)" x2="0" y2="5" stroke="#888" stroke-width="1" opacity="1"/><line transform="translate(70,0)" x2="0" y2="5" stroke="#888" stroke-width="1" opacity="1"/><line transform="translate(90,0)" x2="0" y2="5" stroke="#888" stroke-width="1" opacity="1"/><line transform="translate(110,0)" x2="0" y2="5" stroke="#888" stroke-width="1" opacity="1"/></g><g class="mark-text role-axis-label" pointer-events="none"><text text-anchor="end" transform="translate(9.5,7) rotate(270) translate(0,3)" font-family="sans-serif" font-size="10px" fill="#000" opacity="1">ABS</text><text text-anchor="end" transform="translate(29.5,7) rotate(270) translate(0,3)" font-family="sans-serif" font-size="10px" fill="#000" opacity="1">DIV</text><text text-anchor="end" transform="translate(49.5,7) rotate(270) translate(0,3)" font-family="sans-serif" font-size="10px" fill="#000" opacity="1">ENS+</text><text text-anchor="end" transform="translate(69.5,7) rotate(270) translate(0,3)" font-family="sans-serif" font-size="10px" fill="#000" opacity="1">LR+</text><text text-anchor="end" transform="translate(89.5,7) rotate(270) translate(0,3)" font-family="sans-serif" font-size="10px" fill="#000" opacity="1">NFP+</text><text text-anchor="end" transform="translate(109.5,7) rotate(270) translate(0,3)" font-family="sans-serif" font-size="10px" fill="#000" opacity="1">RN+</text></g><g class="mark-rule role-axis-domain" pointer-events="none"><line transform="translate(0,0)" x2="120" y2="0" stroke="#888" stroke-width="1" opacity="1"/></g><g class="mark-text role-axis-title" pointer-events="none"><text text-anchor="middle" transform="translate(60,46.4013671875)" font-family="sans-serif" font-size="11px" font-weight="bold" fill="#000" opacity="1">Ensemble politique</text></g></g><path class="foreground" aria-hidden="true" d="" pointer-events="none" display="none"/></g></g><g class="mark-group role-axis" role="graphics-symbol" aria-roledescription="axis" aria-label="Y-axis titled 'Nombre de voix estimé' for a linear scale with values from 0 to 26,000"><g transform="translate(0.5,0.5)"><path class="background" aria-hidden="true" d="M0,0h0v0h0Z" pointer-events="none"/><g><g class="mark-rule role-axis-tick" pointer-events="none"><line transform="translate(0,300)" x2="-5" y2="0" stroke="#888" stroke-width="1" opacity="1"/><line transform="translate(0,242)" x2="-5" y2="0" stroke="#888" stroke-width="1" opacity="1"/><line transform="translate(0,185)" x2="-5" y2="0" stroke="#888" stroke-width="1" opacity="1"/><line transform="translate(0,127)" x2="-5" y2="0" stroke="#888" stroke-width="1" opacity="1"/><line transform="translate(0,69)" x2="-5" y2="0" stroke="#888" stroke-width="1" opacity="1"/><line transform="translate(0,12)" x2="-5" y2="0" stroke="#888" stroke-width="1" opacity="1"/></g><g class="mark-text role-axis-label" pointer-events="none"><text text-anchor="end" transform="translate(-7,303)" font-family="sans-serif" font-size="10px" fill="#000" opacity="1">0</text><text text-anchor="end" transform="translate(-7,245.30769230769232)" font-family="sans-serif" font-size="10px" fill="#000" opacity="1">5,000</text><text text-anchor="end" transform="translate(-7,187.6153846153846)" font-family="sans-serif" font-size="10px" fill="#000" opacity="1">10,000</text><text text-anchor="end" transform="translate(-7,129.92307692307693)" font-family="sans-serif" font-size="10px" fill="#000" opacity="1">15,000</text><text text-anchor="end" transform="translate(-7,72.23076923076921)" font-family="sans-serif" font-size="10px" fill="#000" opacity="1">20,000</text><text text-anchor="end" transform="translate(-7,14.538461538461531)" font-family="sans-serif" font-size="10px" fill="#000" opacity="1">25,000</text></g><g class="mark-rule role-axis-domain" pointer-events="none"><line transform="translate(0,300)" x2="0" y2="-300" stroke="#888" stroke-width="1" opacity="1"/></g><g class="mark-text role-axis-title" pointer-events="none"><text text-anchor="middle" transform="translate(-41.5859375,150) rotate(-90) translate(0,-2)" font-family="sans-serif" font-size="11px" font-weight="bold" fill="#000" opacity="1">Nombre de voix estimé</text></g></g><path class="foreground" aria-hidden="true" d="" pointer-events="none" display="none"/></g></g><g class="mark-symbol role-mark layer_0_layer_0_marks" role="graphics-object" aria-roledescription="symbol mark container"><path aria-label="Ensemble politique: ENS+; Nombre de voix estimé: 17909" role="graphics-symbol" aria-roledescription="point" transform="translate(50,93.3576923076923)" d="M2.739,0A2.739,2.739,0,1,1,-2.739,0A2.739,2.739,0,1,1,2.739,0" stroke="#4c78a8" stroke-width="2" opacity="0.7"/><path aria-label="Ensemble politique: ENS+; Nombre de voix estimé: 18066" role="graphics-symbol" aria-roledescription="point" transform="translate(50,91.54615384615383)" d="M2.739,0A2.739,2.739,0,1,1,-2.739,0A2.739,2.739,0,1,1,2.739,0" stroke="#4c78a8" stroke-width="2" opacity="0.7"/><path aria-label="Ensemble politique: ENS+; Nombre de voix estimé: 14136" role="graphics-symbol" aria-roledescription="point" transform="translate(50,136.8923076923077)" d="M2.739,0A2.739,2.739,0,1,1,-2.739,0A2.739,2.739,0,1,1,2.739,0" stroke="#4c78a8" stroke-width="2" opacity="0.7"/><path aria-label="Ensemble politique: ENS+; Nombre de voix estimé: 14297" role="graphics-symbol" aria-roledescription="point" transform="translate(50,135.03461538461536)" d="M2.739,0A2.739,2.739,0,1,1,-2.739,0A2.739,2.739,0,1,1,2.739,0" stroke="#4c78a8" stroke-width="2" opacity="0.7"/><path aria-label="Ensemble politique: ENS+; Nombre de voix estimé: 18427" role="graphics-symbol" aria-roledescription="point" transform="translate(50,87.38076923076922)" d="M2.739,0A2.739,2.739,0,1,1,-2.739,0A2.739,2.739,0,1,1,2.739,0" stroke="#4c78a8" stroke-width="2" opacity="0.7"/><path aria-label="Ensemble politique: ENS+; Nombre de voix estimé: 17998" role="graphics-symbol" aria-roledescription="point" transform="translate(50,92.33076923076923)" d="M2.739,0A2.739,2.739,0,1,1,-2.739,0A2.739,2.739,0,1,1,2.739,0" stroke="#4c78a8" stroke-width="2" opacity="0.7"/><path aria-label="Ensemble politique: ENS+; Nombre de voix estimé: 19139" role="graphics-symbol" aria-roledescription="point" transform="translate(50,79.16538461538461)" d="M2.739,0A2.739,2.739,0,1,1,-2.739,0A2.739,2.739,0,1,1,2.739,0" stroke="#4c78a8" stroke-width="2" opacity="0.7"/><path aria-label="Ensemble politique: ENS+; Nombre de voix estimé: 18136" role="graphics-symbol" aria-roledescription="point" transform="translate(50,90.73846153846154)" d="M2.739,0A2.739,2.739,0,1,1,-2.739,0A2.739,2.739,0,1,1,2.739,0" stroke="#4c78a8" stroke-width="2" opacity="0.7"/><path aria-label="Ensemble politique: ENS+; Nombre de voix estimé: 14376" role="graphics-symbol" aria-roledescription="point" transform="translate(50,134.12307692307692)" d="M2.739,0A2.739,2.739,0,1,1,-2.739,0A2.739,2.739,0,1,1,2.739,0" stroke="#4c78a8" stroke-width="2" opacity="0.7"/><path aria-label="Ensemble politique: ENS+; Nombre de voix estimé: 18268" role="graphics-symbol" aria-roledescription="point" transform="translate(50,89.21538461538461)" d="M2.739,0A2.739,2.739,0,1,1,-2.739,0A2.739,2.739,0,1,1,2.739,0" stroke="#4c78a8" stroke-width="2" opacity="0.7"/><path aria-label="Ensemble politique: ENS+; Nombre de voix estimé: 18066" role="graphics-symbol" aria-roledescription="point" transform="translate(50,91.54615384615383)" d="M2.739,0A2.739,2.739,0,1,1,-2.739,0A2.739,2.739,0,1,1,2.739,0" stroke="#4c78a8" stroke-width="2" opacity="0.7"/><path aria-label="Ensemble politique: ENS+; Nombre de voix estimé: 17873" role="graphics-symbol" aria-roledescription="point" transform="translate(50,93.77307692307693)" d="M2.739,0A2.739,2.739,0,1,1,-2.739,0A2.739,2.739,0,1,1,2.739,0" stroke="#4c78a8" stroke-width="2" opacity="0.7"/><path aria-label="Ensemble politique: ENS+; Nombre de voix estimé: 17870" role="graphics-symbol" aria-roledescription="point" transform="translate(50,93.80769230769232)" d="M2.739,0A2.739,2.739,0,1,1,-2.739,0A2.739,2.739,0,1,1,2.739,0" stroke="#4c78a8" stroke-width="2" opacity="0.7"/><path aria-label="Ensemble politique: ENS+; Nombre de voix estimé: 18281" role="graphics-symbol" aria-roledescription="point" transform="translate(50,89.06538461538463)" d="M2.739,0A2.739,2.739,0,1,1,-2.739,0A2.739,2.739,0,1,1,2.739,0" stroke="#4c78a8" stroke-width="2" opacity="0.7"/><path aria-label="Ensemble politique: ENS+; Nombre de voix estimé: 17880" role="graphics-symbol" aria-roledescription="point" transform="translate(50,93.69230769230768)" d="M2.739,0A2.739,2.739,0,1,1,-2.739,0A2.739,2.739,0,1,1,2.739,0" stroke="#4c78a8" stroke-width="2" opacity="0.7"/><path aria-label="Ensemble politique: ENS+; Nombre de voix estimé: 18691" role="graphics-symbol" aria-roledescription="point" transform="translate(50,84.3346153846154)" d="M2.739,0A2.739,2.739,0,1,1,-2.739,0A2.739,2.739,0,1,1,2.739,0" stroke="#4c78a8" stroke-width="2" opacity="0.7"/><path aria-label="Ensemble politique: ENS+; Nombre de voix estimé: 14374" role="graphics-symbol" aria-roledescription="point" transform="translate(50,134.14615384615385)" d="M2.739,0A2.739,2.739,0,1,1,-2.739,0A2.739,2.739,0,1,1,2.739,0" stroke="#4c78a8" stroke-width="2" opacity="0.7"/><path aria-label="Ensemble politique: NFP+; Nombre de voix estimé: 17683" role="graphics-symbol" aria-roledescription="point" transform="translate(90,95.96538461538464)" d="M2.739,0A2.739,2.739,0,1,1,-2.739,0A2.739,2.739,0,1,1,2.739,0" stroke="#4c78a8" stroke-width="2" opacity="0.7"/><path aria-label="Ensemble politique: NFP+; Nombre de voix estimé: 18192" role="graphics-symbol" aria-roledescription="point" transform="translate(90,90.09230769230768)" d="M2.739,0A2.739,2.739,0,1,1,-2.739,0A2.739,2.739,0,1,1,2.739,0" stroke="#4c78a8" stroke-width="2" opacity="0.7"/><path aria-label="Ensemble politique: NFP+; Nombre de voix estimé: 17665" role="graphics-symbol" aria-roledescription="point" transform="translate(90,96.17307692307693)" d="M2.739,0A2.739,2.739,0,1,1,-2.739,0A2.739,2.739,0,1,1,2.739,0" stroke="#4c78a8" stroke-width="2" opacity="0.7"/><path aria-label="Ensemble politique: NFP+; Nombre de voix estimé: 17670" role="graphics-symbol" aria-roledescription="point" transform="translate(90,96.11538461538461)" d="M2.739,0A2.739,2.739,0,1,1,-2.739,0A2.739,2.739,0,1,1,2.739,0" stroke="#4c78a8" stroke-width="2" opacity="0.7"/><path aria-label="Ensemble politique: NFP+; Nombre de voix estimé: 17765" role="graphics-symbol" aria-roledescription="point" transform="translate(90,95.01923076923077)" d="M2.739,0A2.739,2.739,0,1,1,-2.739,0A2.739,2.739,0,1,1,2.739,0" stroke="#4c78a8" stroke-width="2" opacity="0.7"/><path aria-label="Ensemble politique: NFP+; Nombre de voix estimé: 18052" role="graphics-symbol" aria-roledescription="point" transform="translate(90,91.70769230769231)" d="M2.739,0A2.739,2.739,0,1,1,-2.739,0A2.739,2.739,0,1,1,2.739,0" stroke="#4c78a8" stroke-width="2" opacity="0.7"/><path aria-label="Ensemble politique: NFP+; Nombre de voix estimé: 17839" role="graphics-symbol" aria-roledescription="point" transform="translate(90,94.16538461538462)" d="M2.739,0A2.739,2.739,0,1,1,-2.739,0A2.739,2.739,0,1,1,2.739,0" stroke="#4c78a8" stroke-width="2" opacity="0.7"/><path aria-label="Ensemble politique: NFP+; Nombre de voix estimé: 17691" role="graphics-symbol" aria-roledescription="point" transform="translate(90,95.87307692307692)" d="M2.739,0A2.739,2.739,0,1,1,-2.739,0A2.739,2.739,0,1,1,2.739,0" stroke="#4c78a8" stroke-width="2" opacity="0.7"/><path aria-label="Ensemble politique: NFP+; Nombre de voix estimé: 17973" role="graphics-symbol" aria-roledescription="point" transform="translate(90,92.61923076923078)" d="M2.739,0A2.739,2.739,0,1,1,-2.739,0A2.739,2.739,0,1,1,2.739,0" stroke="#4c78a8" stroke-width="2" opacity="0.7"/><path aria-label="Ensemble politique: RN+; Nombre de voix estimé: 16640" role="graphics-symbol" aria-roledescription="point" transform="translate(110,108)" d="M2.739,0A2.739,2.739,0,1,1,-2.739,0A2.739,2.739,0,1,1,2.739,0" stroke="#4c78a8" stroke-width="2" opacity="0.7"/><path aria-label="Ensemble politique: RN+; Nombre de voix estimé: 16154" role="graphics-symbol" aria-roledescription="point" transform="translate(110,113.6076923076923)" d="M2.739,0A2.739,2.739,0,1,1,-2.739,0A2.739,2.739,0,1,1,2.739,0" stroke="#4c78a8" stroke-width="2" opacity="0.7"/><path aria-label="Ensemble politique: RN+; Nombre de voix estimé: 16174" role="graphics-symbol" aria-roledescription="point" transform="translate(110,113.37692307692308)" d="M2.739,0A2.739,2.739,0,1,1,-2.739,0A2.739,2.739,0,1,1,2.739,0" stroke="#4c78a8" stroke-width="2" opacity="0.7"/><path aria-label="Ensemble politique: RN+; Nombre de voix estimé: 16598" role="graphics-symbol" aria-roledescription="point" transform="translate(110,108.48461538461537)" d="M2.739,0A2.739,2.739,0,1,1,-2.739,0A2.739,2.739,0,1,1,2.739,0" stroke="#4c78a8" stroke-width="2" opacity="0.7"/><path aria-label="Ensemble politique: RN+; Nombre de voix estimé: 15890" role="graphics-symbol" aria-roledescription="point" transform="translate(110,116.65384615384615)" d="M2.739,0A2.739,2.739,0,1,1,-2.739,0A2.739,2.739,0,1,1,2.739,0" stroke="#4c78a8" stroke-width="2" opacity="0.7"/><path aria-label="Ensemble politique: RN+; Nombre de voix estimé: 15919" role="graphics-symbol" aria-roledescription="point" transform="translate(110,116.31923076923076)" d="M2.739,0A2.739,2.739,0,1,1,-2.739,0A2.739,2.739,0,1,1,2.739,0" stroke="#4c78a8" stroke-width="2" opacity="0.7"/><path aria-label="Ensemble politique: ABS; Nombre de voix estimé: 25554" role="graphics-symbol" aria-roledescription="point" transform="translate(10,5.146153846153856)" d="M2.739,0A2.739,2.739,0,1,1,-2.739,0A2.739,2.739,0,1,1,2.739,0" stroke="#4c78a8" stroke-width="2" opacity="0.7"/><path aria-label="Ensemble politique: ABS; Nombre de voix estimé: 25028" role="graphics-symbol" aria-roledescription="point" transform="translate(10,11.215384615384604)" d="M2.739,0A2.739,2.739,0,1,1,-2.739,0A2.739,2.739,0,1,1,2.739,0" stroke="#4c78a8" stroke-width="2" opacity="0.7"/><path aria-label="Ensemble politique: ABS; Nombre de voix estimé: 25845" role="graphics-symbol" aria-roledescription="point" transform="translate(10,1.7884615384615388)" d="M2.739,0A2.739,2.739,0,1,1,-2.739,0A2.739,2.739,0,1,1,2.739,0" stroke="#4c78a8" stroke-width="2" opacity="0.7"/><path aria-label="Ensemble politique: ABS; Nombre de voix estimé: 25081" role="graphics-symbol" aria-roledescription="point" transform="translate(10,10.603846153846142)" d="M2.739,0A2.739,2.739,0,1,1,-2.739,0A2.739,2.739,0,1,1,2.739,0" stroke="#4c78a8" stroke-width="2" opacity="0.7"/><path aria-label="Ensemble politique: ABS; Nombre de voix estimé: 25376" role="graphics-symbol" aria-roledescription="point" transform="translate(10,7.200000000000006)" d="M2.739,0A2.739,2.739,0,1,1,-2.739,0A2.739,2.739,0,1,1,2.739,0" stroke="#4c78a8" stroke-width="2" opacity="0.7"/><path aria-label="Ensemble politique: ABS; Nombre de voix estimé: 25598" role="graphics-symbol" aria-roledescription="point" transform="translate(10,4.638461538461525)" d="M2.739,0A2.739,2.739,0,1,1,-2.739,0A2.739,2.739,0,1,1,2.739,0" stroke="#4c78a8" stroke-width="2" opacity="0.7"/><path aria-label="Ensemble politique: ABS; Nombre de voix estimé: 25420" role="graphics-symbol" aria-roledescription="point" transform="translate(10,6.6923076923077085)" d="M2.739,0A2.739,2.739,0,1,1,-2.739,0A2.739,2.739,0,1,1,2.739,0" stroke="#4c78a8" stroke-width="2" opacity="0.7"/></g><g class="mark-rule role-mark layer_0_layer_1_layer_0_marks" aria-hidden="true"><line transform="translate(30,300)" x2="0" y2="0" stroke="black"/><line transform="translate(50,133.90384615384616)" x2="0" y2="-14.965384615384636" stroke="black"/><line transform="translate(70,300)" x2="0" y2="0" stroke="black"/><line transform="translate(90,130.62692307692308)" x2="0" y2="-9.920192307692318" stroke="black"/><line transform="translate(110,150.28846153846155)" x2="0" y2="-9.354807692307702" stroke="black"/><line transform="translate(10,46.349999999999994)" x2="0" y2="-9.331730769230774" stroke="black"/></g><g class="mark-rule role-mark layer_0_layer_1_layer_1_marks" aria-hidden="true"><line transform="translate(30,300)" x2="0" y2="0" stroke="black"/><line transform="translate(50,108.9201923076923)" x2="0" y2="-14.870192307692307" stroke="black"/><line transform="translate(70,300)" x2="0" y2="0" stroke="black"/><line transform="translate(90,111.07499999999999)" x2="0" y2="-14.174999999999997" stroke="black"/><line transform="translate(110,131.27884615384613)" x2="0" y2="-14.451923076923066" stroke="black"/><line transform="translate(10,26.83557692307692)" x2="0" y2="-14.927884615384613" stroke="black"/></g><g class="mark-rect role-mark layer_1_layer_0_marks" role="graphics-object" aria-roledescription="rect mark container"><path aria-label="Ensemble politique: DIV; Nombre de voix estimé: 0; upper_box_NbVoix: 0; Max of Nombre de voix estimé: 0; Q3 of Nombre de voix estimé: 0; Median of Nombre de voix estimé: 0; Q1 of Nombre de voix estimé: 0; Min of Nombre de voix estimé: 0" role="graphics-symbol" aria-roledescription="box" d="M23,300h14v0h-14Z" fill="#4c78a8"/><path aria-label="Ensemble politique: ENS+; Nombre de voix estimé: 15692; upper_box_NbVoix: 16560.25; Max of Nombre de voix estimé: 19139; Q3 of Nombre de voix estimé: 16560.25; Median of Nombre de voix estimé: 16135.5; Q1 of Nombre de voix estimé: 15692; Min of Nombre de voix estimé: 14136" role="graphics-symbol" aria-roledescription="box" d="M43,108.9201923076923h14v10.01826923076922h-14Z" fill="#4c78a8"/><path aria-label="Ensemble politique: LR+; Nombre de voix estimé: 0; upper_box_NbVoix: 0; Max of Nombre de voix estimé: 0; Q3 of Nombre de voix estimé: 0; Median of Nombre de voix estimé: 0; Q1 of Nombre de voix estimé: 0; Min of Nombre de voix estimé: 0" role="graphics-symbol" aria-roledescription="box" d="M63,300h14v0h-14Z" fill="#4c78a8"/><path aria-label="Ensemble politique: NFP+; Nombre de voix estimé: 15538.75; upper_box_NbVoix: 16373.5; Max of Nombre de voix estimé: 18192; Q3 of Nombre de voix estimé: 16373.5; Median of Nombre de voix estimé: 15950; Q1 of Nombre de voix estimé: 15538.75; Min of Nombre de voix estimé: 14679" role="graphics-symbol" aria-roledescription="box" d="M83,111.07499999999999h14v9.63173076923077h-14Z" fill="#4c78a8"/><path aria-label="Ensemble politique: RN+; Nombre de voix estimé: 13785.75; upper_box_NbVoix: 14622.5; Max of Nombre de voix estimé: 16640; Q3 of Nombre de voix estimé: 14622.5; Median of Nombre de voix estimé: 14197; Q1 of Nombre de voix estimé: 13785.75; Min of Nombre de voix estimé: 12975" role="graphics-symbol" aria-roledescription="box" d="M103,131.27884615384613h14v9.654807692307713h-14Z" fill="#4c78a8"/><path aria-label="Ensemble politique: ABS; Nombre de voix estimé: 22791.75; upper_box_NbVoix: 23674.25; Max of Nombre de voix estimé: 25845; Q3 of Nombre de voix estimé: 23674.25; Median of Nombre de voix estimé: 23224.5; Q1 of Nombre de voix estimé: 22791.75; Min of Nombre de voix estimé: 21983" role="graphics-symbol" aria-roledescription="box" d="M3,26.83557692307692h14v10.1826923076923h-14Z" fill="#4c78a8"/></g><g class="mark-rect role-mark layer_1_layer_1_marks" aria-hidden="true"><path d="M23,299.5h14v1h-14Z" fill="white" opacity="0.7"/><path d="M43,113.32115384615385h14v1h-14Z" fill="white" opacity="0.7"/><path d="M63,299.5h14v1h-14Z" fill="white" opacity="0.7"/><path d="M83,115.46153846153845h14v1h-14Z" fill="white" opacity="0.7"/><path d="M103,135.68846153846152h14v1h-14Z" fill="white" opacity="0.7"/><path d="M3,31.525000000000006h14v1h-14Z" fill="white" opacity="0.7"/></g><g class="mark-group role-title"><g transform="translate(60,-19.95015124906429)"><path class="background" aria-hidden="true" d="M0,0h0v0h0Z" pointer-events="none"/><g><g class="mark-text role-title-text" role="graphics-symbol" aria-roledescription="title" aria-label="Title text 'Résultats des simulations sur la circonscription 2101'" pointer-events="none"><text text-anchor="middle" transform="translate(0,10)" font-family="sans-serif" font-size="13px" font-weight="bold" fill="#000" opacity="1">Résultats des simulations sur la circonscription 2101</text></g></g><path class="foreground" aria-hidden="true" d="" pointer-events="none" display="none"/></g></g></g><path class="foreground" aria-hidden="true" d="" display="none"/></g></g></g></svg>